<svg width="500" height="500" viewBox="0 0 500 500" fill="none" xmlns="http://www.w3.org/2000/svg">
<path d="M500 250C500 111.929 388.071 0 250 0C111.929 0 0 111.929 0 250C0 388.071 111.929 500 250 500C388.071 500 500 388.071 500 250Z" fill="white"/>
<path d="M245.74 118.3L110.34 148.87C106.058 149.837 102.232 152.232 99.4918 155.661C96.7512 159.091 95.2589 163.35 95.26 167.74V332.66C95.2573 337.056 96.754 341.322 99.503 344.753C102.252 348.184 106.089 350.574 110.38 351.53L245.57 381.71C248.342 382.33 251.218 382.33 253.99 381.71L389.57 351.49C393.862 350.542 397.703 348.161 400.461 344.738C403.218 341.315 404.727 337.055 404.74 332.66V167.74C404.741 163.35 403.249 159.091 400.508 155.661C397.768 152.232 393.942 149.837 389.66 148.87L254.26 118.3C251.455 117.67 248.545 117.67 245.74 118.3V118.3Z" fill="#242729"/>
<path d="M243.91 318.37H131.77V182.74H243.91V200.12H171.57V241.3H237.26V258.57H171.57V300.99H243.88L243.91 318.37Z" fill="white"/>
<path d="M377.74 182.74L302.32 300.99H372.05V318.37H245.57L321.4 200.12H256.29V182.74H377.74Z" fill="white"/>
</svg>
