<svg width="14" height="10" viewBox="0 0 14 10" fill="none" xmlns="http://www.w3.org/2000/svg">
<path fill-rule="evenodd" clip-rule="evenodd" d="M13.2655 5.75525C12.4733 7.0762 10.4767 9.66634 7.00004 9.66634C3.52336 9.66634 1.52676 7.0762 0.73457 5.75525C0.45306 5.28583 0.45306 4.71351 0.734571 4.2441C1.52676 2.92315 3.52336 0.333008 7.00004 0.333008C10.4767 0.333008 12.4733 2.92315 13.2655 4.2441C13.547 4.71351 13.547 5.28584 13.2655 5.75525ZM7.00004 6.99967C8.10461 6.99967 9.00004 6.10424 9.00004 4.99967C9.00004 3.89511 8.10461 2.99967 7.00004 2.99967C5.89547 2.99967 5.00004 3.89511 5.00004 4.99967C5.00004 6.10424 5.89547 6.99967 7.00004 6.99967Z" fill="#EF6825"/>
</svg>
