<svg width="146" height="48" viewBox="0 0 146 48" fill="none" xmlns="http://www.w3.org/2000/svg">
<g clip-path="url(#clip0_19_122)">
<path d="M72.8465 15.9986C71.9652 15.9821 71.0923 16.1758 70.2985 16.564C69.5553 16.9463 68.9154 17.5068 68.4348 18.1966C67.9016 18.9758 67.5145 19.8477 67.293 20.7688C67.0198 21.881 66.8886 23.0241 66.9026 24.1701C66.8697 25.6395 67.0812 27.104 67.5281 28.5024C67.8689 29.5993 68.5451 30.5581 69.459 31.2404C70.4608 31.9073 71.6447 32.2375 72.8423 32.1842C73.8139 32.1821 74.7823 32.0723 75.7303 31.8569C76.7954 31.6073 77.8452 31.2949 78.8744 30.9215V35.1731C77.8798 35.5958 76.8444 35.9121 75.7849 36.1169C74.6583 36.3174 73.516 36.4128 72.3722 36.4018C69.9319 36.4018 67.9282 35.8916 66.3611 34.8712C64.7852 33.8428 63.5656 32.3416 62.8728 30.5772C62.0823 28.5231 61.6987 26.3316 61.7437 24.1276C61.7241 22.4382 61.9692 20.7563 62.4699 19.1447C62.9177 17.7085 63.6441 16.3773 64.6065 15.2291C65.5571 14.1187 66.748 13.2458 68.0864 12.6781C69.5945 12.0525 71.2129 11.7458 72.8423 11.7768C74.0344 11.7781 75.2216 11.9295 76.3768 12.2275C77.5438 12.5247 78.6786 12.9392 79.7643 13.4647L78.1482 17.5929C77.278 17.1749 76.3869 16.8031 75.4785 16.479C74.6339 16.1708 73.7442 16.0084 72.8465 15.9986Z" fill="#222E5E"/>
<path d="M86.8038 10.5778V15.769C86.8038 16.6788 86.7731 17.5419 86.7115 18.3582C86.6527 19.1787 86.6066 19.7569 86.5772 20.097H86.8332C87.192 19.4978 87.6625 18.9751 88.2185 18.558C88.7545 18.1705 89.3543 17.8826 89.9899 17.7077C90.6737 17.5186 91.3799 17.4256 92.0887 17.4313C93.2633 17.4045 94.429 17.6427 95.5014 18.1286C96.4694 18.5871 97.2647 19.3508 97.7682 20.3054C98.3512 21.4917 98.6298 22.8076 98.5783 24.1318V36.0786H93.6293V25.3732C93.6293 24.0637 93.3942 23.0731 92.9199 22.3971C92.665 22.0562 92.3296 21.7856 91.9445 21.6103C91.5594 21.435 91.137 21.3605 90.7161 21.3938C89.8782 21.3472 89.0498 21.5933 88.3696 22.091C87.7575 22.6237 87.332 23.3425 87.1565 24.1403C86.9012 25.2218 86.7827 26.3319 86.8038 27.4437V36.0744H81.8674V10.5651L86.8038 10.5778Z" fill="#222E5E"/>
<path d="M109.4 17.3761C111.826 17.3761 113.686 17.9118 114.979 18.9832C116.272 20.0546 116.919 21.6829 116.922 23.8682V36.0744H113.468L112.523 33.566H112.393C111.93 34.1647 111.397 34.7044 110.806 35.1731C110.251 35.5983 109.619 35.9102 108.947 36.0914C108.111 36.3032 107.251 36.4018 106.39 36.3848C105.399 36.4015 104.417 36.1893 103.519 35.7641C102.675 35.3512 101.977 34.6845 101.521 33.8551C101 32.8501 100.748 31.7243 100.791 30.5899C100.791 28.6427 101.465 27.2085 102.814 26.2874C104.163 25.3662 106.185 24.856 108.879 24.7568L112.019 24.6548V23.8555C112.019 22.8904 111.772 22.1889 111.276 21.7297C110.692 21.2519 109.952 21.0123 109.203 21.0579C108.333 21.0581 107.468 21.1856 106.634 21.4363C105.774 21.6959 104.932 22.0141 104.115 22.3887L102.482 19.0087C103.505 18.4884 104.586 18.0945 105.702 17.8353C106.912 17.533 108.154 17.3789 109.4 17.3761ZM112.019 27.5798L110.109 27.6436C108.514 27.6861 107.406 27.9696 106.785 28.4939C106.48 28.7531 106.238 29.0794 106.078 29.4479C105.917 29.8163 105.841 30.2172 105.857 30.6197C105.826 30.9261 105.871 31.2354 105.987 31.5202C106.102 31.805 106.286 32.0565 106.52 32.2523C107.031 32.5963 107.637 32.7661 108.25 32.737C109.228 32.7649 110.182 32.4257 110.928 31.7846C111.298 31.4455 111.588 31.0264 111.777 30.5584C111.966 30.0904 112.049 29.5853 112.019 29.0806V27.5798Z" fill="#222E5E"/>
<path d="M122.82 10.5778C123.487 10.5586 124.145 10.7374 124.713 11.0923C125.242 11.438 125.506 12.08 125.506 13.0182C125.506 13.9564 125.242 14.5984 124.713 14.9442C124.142 15.2894 123.489 15.4717 122.824 15.4717C122.159 15.4717 121.506 15.2894 120.935 14.9442C120.412 14.587 120.15 13.945 120.15 13.0182C120.15 12.0914 120.412 11.4494 120.935 11.0923C121.5 10.7377 122.156 10.5588 122.82 10.5778ZM125.28 17.7544V36.0744H120.347V17.7544H125.28Z" fill="#222E5E"/>
<path d="M139.073 17.4102C141 17.4102 142.557 17.9416 143.733 19.0087C144.908 20.0759 145.496 21.7807 145.496 24.1106V36.0575H140.564V25.3733C140.564 24.0638 140.328 23.0732 139.863 22.3972C139.607 22.055 139.27 21.7837 138.883 21.6083C138.497 21.4329 138.073 21.3591 137.65 21.3939C136.143 21.3939 135.111 21.9125 134.561 22.9542C134.011 23.9958 133.721 25.5051 133.721 27.4438V36.0745H128.802V17.7545H132.58L133.243 20.0971H133.52C133.886 19.4837 134.381 18.9585 134.968 18.5581C135.556 18.1658 136.207 17.8782 136.891 17.7078C137.603 17.517 138.336 17.417 139.073 17.4102Z" fill="#222E5E"/>
<path d="M26.9953 0.0893161L2.70331 5.63759C1.93597 5.81393 1.25056 6.24907 0.759395 6.87167C0.268235 7.49428 0.000474422 8.2674 0 9.06433V39.0037C0.00166537 39.8016 0.270905 40.5753 0.763591 41.1979C1.25628 41.8205 1.94318 42.2551 2.7117 42.4305L26.9365 47.915C27.4341 48.0276 27.9501 48.0276 28.4477 47.915L52.7691 42.4262C53.5387 42.253 54.2269 41.8189 54.7199 41.1959C55.213 40.5728 55.4814 39.798 55.4808 38.9995V9.06433C55.4811 8.2672 55.2136 7.49369 54.7223 6.87093C54.231 6.24817 53.5452 5.81323 52.7775 5.63759L28.5065 0.0893161C28.0088 -0.0229361 27.4929 -0.0229361 26.9953 0.0893161Z" fill="#EF6825"/>
<path d="M26.6511 36.4145H6.5484V11.7896H26.6511V14.9442H13.6887V22.4184H25.4631V25.5561H13.7096V33.2599H26.6721L26.6511 36.4145Z" fill="white"/>
<path d="M50.6408 11.7896L37.1201 33.2599H49.6208V36.4145H26.9533L40.5454 14.9442H28.8675V11.7896H50.6408Z" fill="white"/>
</g>
<defs>
<clipPath id="clip0_19_122">
<rect width="145.5" height="48" fill="white"/>
</clipPath>
</defs>
</svg>
